<svg xmlns="http://www.w3.org/2000/svg" width="129" height="41" fill="none" viewBox="0 0 129 41"><g fill="#000" clip-path="url(#clip0_23_4263)"><path fill-rule="evenodd" d="M73.675 17.41c0 2.97-.521 7.456-2.327 9.224h.001c-.735.719-1.998 1.118-3.22 1.118V.884h1.718V.5H62.73v.384h1.375v26.868H62.73v.384h11.481v-11.18h-.536v.455ZM9.915.503v.384h-1.33v13.73l3.978-10.144c.629-1.747.652-2.502.319-3.062-.348-.528-.829-.526-1.378-.524h-.1V.502h4.88v.384c-1.775.315-2.255.979-2.958 3.004l-2.224 5.854 5.287 18.008h1.108v.384h-6.355v-.384h1.333L8.583 15.035v12.717h.924v.384h-6.28v-.384h1.33V.886h-1.33V.502h6.688Zm23.133 27.63h4.6v-.44c-1.948-.15-2.274-1.933-1.132-8.632l.137-.753h4.275l1.477 9.464h-1.582v.362h6.364v-.362s-.813.007-1.104 0C45.856 26.833 41.157.505 41.157.505h-2.182L36.07 18.909c-1.103 6.85-1.696 8.64-3.015 8.79l-.007.434Zm3.705-10.502 2.032-12.57c.197 1.506.689 4.743.944 6.21l1.082 6.361h-4.058v-.001ZM96.45.502v.384h-1.331v13.73l3.979-10.144c.628-1.747.652-2.502.319-3.062-.349-.528-.829-.526-1.378-.524h-.1V.502h4.88v.384c-1.775.315-2.255.979-2.958 3.004l-2.224 5.854 5.287 18.008h1.108v.384h-6.354v-.384h1.333L95.12 15.034V27.75h.924v.385H89.76v-.384h1.331V.886h-1.33V.502h6.688Zm29.327 27.634v-.384h-1.18V.884h1.18V.5h-6.2v.384h1.181v26.868h-1.181v.384h6.2Z" clip-rule="evenodd"/><path d="M37.258 33.741v6.032h.74v-2.96h2.066v-.688H38V34.43h2.136v-.688h-2.877Zm6.344 6.032h.797l.677-1.512h2.728l.678 1.512h.796l-2.838-6.288-2.838 6.288Zm2.838-4.64 1.057 2.44h-2.113l1.056-2.44Zm8.98-1.52c-.954 0-1.75.624-1.75 1.56 0 .848.647 1.248 1.293 1.528l.41.176c.741.32 1.025.624 1.025 1.144 0 .664-.489 1.176-1.096 1.176-.615 0-1.15-.448-1.15-1.144l-.75.16c.142 1.024.915 1.688 1.837 1.688 1.009 0 1.9-.736 1.9-1.88 0-.784-.363-1.384-1.474-1.816l-.434-.168c-.528-.2-.82-.48-.82-.864 0-.52.505-.856.993-.856.45 0 .734.192.954.568l.592-.36c-.324-.584-.867-.912-1.53-.912Zm6.41.128v6.032h.741v-2.896h2.83v2.896h.742v-6.032H65.4v2.432h-2.83v-2.432h-.74Zm9.301 0v6.032h.741v-6.032h-.74Zm8.494-.128c-1.719 0-3.114 1.432-3.114 3.144 0 1.784 1.388 3.144 3.114 3.144 1.758 0 3.114-1.4 3.114-3.144a3.14 3.14 0 0 0-3.114-3.144Zm-2.373 3.144c0-1.384 1.04-2.44 2.365-2.44 1.387 0 2.38 1.096 2.38 2.44 0 1.384-1.103 2.44-2.372 2.44-1.27 0-2.373-1.056-2.373-2.44Zm10.076 3.016h.74v-4.496l4.463 4.744v-6.28h-.741v4.456l-4.462-4.744v6.32Z"/></g><defs><clipPath id="clip0_23_4263"><path fill="#fff" d="M0 .5h129v40H0z"/></clipPath></defs></svg>